<mxfile host="65bd71144e">
    <diagram name="中医理论核心逻辑" id="diagram-1">
        <mxGraphModel dx="1633" dy="1398" grid="1" gridSize="10" guides="1" tooltips="1" connect="1" arrows="1" fold="1" page="1" pageScale="1" pageWidth="1600" pageHeight="1200" background="#FFFFFF" math="0" shadow="0">
            <root>
                <mxCell id="0"/>
                <mxCell id="1" parent="0"/>
                <mxCell id="title" value="中医理论核心逻辑：基于朴素辩证唯物主义的“取象比类”" style="text;html=1;strokeColor=none;fillColor=none;align=center;verticalAlign=middle;whiteSpace=wrap;rounded=0;fontSize=20;fontStyle=1;" parent="1" vertex="1">
                    <mxGeometry x="400" y="20" width="800" height="40" as="geometry"/>
                </mxCell>
                <mxCell id="philosophy" value="核心思想：宇宙万物（包括人体）是一个整体，其构成要素（五行）之间通过相生（促进）和相克（抑制）的动态平衡来维持稳定。疾病的发生是平衡被打破，治疗的目的是恢复平衡。" style="text;html=1;strokeColor=none;fillColor=none;align=center;verticalAlign=middle;whiteSpace=wrap;rounded=0;fontSize=14;" parent="1" vertex="1">
                    <mxGeometry x="450" y="70" width="700" height="60" as="geometry"/>
                </mxCell>
                <mxCell id="wood" value="木 (Wood)&lt;br&gt;生发、条达" style="ellipse;whiteSpace=wrap;html=1;aspect=fixed;fillColor=#D5E8D4;strokeColor=#82B366;" parent="1" vertex="1">
                    <mxGeometry x="750" y="200" width="100" height="100" as="geometry"/>
                </mxCell>
                <mxCell id="fire" value="火 (Fire)&lt;br&gt;温热、向上" style="ellipse;whiteSpace=wrap;html=1;aspect=fixed;fillColor=#F8CECC;strokeColor=#B85450;" parent="1" vertex="1">
                    <mxGeometry x="1050" y="450" width="100" height="100" as="geometry"/>
                </mxCell>
                <mxCell id="earth" value="土 (Earth)&lt;br&gt;承载、化生" style="ellipse;whiteSpace=wrap;html=1;aspect=fixed;fillColor=#FFF2CC;strokeColor=#D6B656;" parent="1" vertex="1">
                    <mxGeometry x="900" y="700" width="100" height="100" as="geometry"/>
                </mxCell>
                <mxCell id="metal" value="金 (Metal)&lt;br&gt;清肃、收敛" style="ellipse;whiteSpace=wrap;html=1;aspect=fixed;fillColor=#E1D5E7;strokeColor=#9673A6;" parent="1" vertex="1">
                    <mxGeometry x="600" y="700" width="100" height="100" as="geometry"/>
                </mxCell>
                <mxCell id="water" value="水 (Water)&lt;br&gt;寒凉、滋润" style="ellipse;whiteSpace=wrap;html=1;aspect=fixed;fillColor=#DAE8FC;strokeColor=#6C8EBF;" parent="1" vertex="1">
                    <mxGeometry x="450" y="450" width="100" height="100" as="geometry"/>
                </mxCell>
                <mxCell id="taiji" value="阴阳&lt;br&gt;Yin-Yang" style="ellipse;whiteSpace=wrap;html=1;aspect=fixed;fontSize=18;fontStyle=1;fillColor=#f5f5f5;strokeColor=#000000;" parent="1" vertex="1">
                    <mxGeometry x="750" y="450" width="100" height="100" as="geometry"/>
                </mxCell>
                <mxCell id="gen-wood-fire" value="相生" style="edgeStyle=entityRelationEdgeStyle;endArrow=classic;html=1;rounded=0;curved=1;" parent="1" source="wood" target="fire" edge="1">
                    <mxGeometry relative="1" as="geometry"/>
                </mxCell>
                <mxCell id="gen-fire-earth" value="" style="edgeStyle=entityRelationEdgeStyle;endArrow=classic;html=1;rounded=0;curved=1;" parent="1" source="fire" target="earth" edge="1">
                    <mxGeometry relative="1" as="geometry"/>
                </mxCell>
                <mxCell id="gen-earth-metal" value="" style="edgeStyle=entityRelationEdgeStyle;endArrow=classic;html=1;rounded=0;curved=1;" parent="1" source="earth" target="metal" edge="1">
                    <mxGeometry relative="1" as="geometry"/>
                </mxCell>
                <mxCell id="gen-metal-water" value="" style="edgeStyle=entityRelationEdgeStyle;endArrow=classic;html=1;rounded=0;curved=1;" parent="1" source="metal" target="water" edge="1">
                    <mxGeometry relative="1" as="geometry"/>
                </mxCell>
                <mxCell id="gen-water-wood" value="" style="edgeStyle=entityRelationEdgeStyle;endArrow=classic;html=1;rounded=0;curved=1;" parent="1" source="water" target="wood" edge="1">
                    <mxGeometry relative="1" as="geometry"/>
                </mxCell>
                <mxCell id="over-wood-earth" value="相克" style="edgeStyle=orthogonalEdgeStyle;endArrow=classic;html=1;rounded=0;dashed=1;strokeColor=#FF0000;" parent="1" source="wood" target="earth" edge="1">
                    <mxGeometry relative="1" as="geometry"/>
                </mxCell>
                <mxCell id="over-earth-water" value="" style="edgeStyle=orthogonalEdgeStyle;endArrow=classic;html=1;rounded=0;dashed=1;strokeColor=#FF0000;" parent="1" source="earth" target="water" edge="1">
                    <mxGeometry relative="1" as="geometry"/>
                </mxCell>
                <mxCell id="over-water-fire" value="" style="edgeStyle=orthogonalEdgeStyle;endArrow=classic;html=1;rounded=0;dashed=1;strokeColor=#FF0000;" parent="1" source="water" target="fire" edge="1">
                    <mxGeometry relative="1" as="geometry"/>
                </mxCell>
                <mxCell id="over-fire-metal" value="" style="edgeStyle=orthogonalEdgeStyle;endArrow=classic;html=1;rounded=0;dashed=1;strokeColor=#FF0000;" parent="1" source="fire" target="metal" edge="1">
                    <mxGeometry relative="1" as="geometry"/>
                </mxCell>
                <mxCell id="over-metal-wood" value="" style="edgeStyle=orthogonalEdgeStyle;endArrow=classic;html=1;rounded=0;dashed=1;strokeColor=#FF0000;" parent="1" source="metal" target="wood" edge="1">
                    <mxGeometry relative="1" as="geometry"/>
                </mxCell>
                <mxCell id="cat-organs" value="脏腑 (Zang-fu Organs)" style="rounded=1;whiteSpace=wrap;html=1;fillColor=#f8f9fa;strokeColor=#343a40;fontStyle=1;fontSize=16;verticalAlign=bottom;" parent="1" vertex="1">
                    <mxGeometry x="50" y="150" width="300" height="250" as="geometry"/>
                </mxCell>
                <mxCell id="organs-content" value="&lt;b&gt;木：&lt;/b&gt;肝 (Yin), 胆 (Yang)&lt;br&gt;&lt;b&gt;火：&lt;/b&gt;心 (Yin), 小肠 (Yang)&lt;br&gt;&lt;b&gt;土：&lt;/b&gt;脾 (Yin), 胃 (Yang)&lt;br&gt;&lt;b&gt;金：&lt;/b&gt;肺 (Yin), 大肠 (Yang)&lt;br&gt;&lt;b&gt;水：&lt;/b&gt;肾 (Yin), 膀胱 (Yang)" style="text;html=1;strokeColor=none;fillColor=none;align=left;verticalAlign=top;whiteSpace=wrap;rounded=0;spacingLeft=10;" parent="cat-organs" vertex="1">
                    <mxGeometry y="40" width="300" height="210" as="geometry"/>
                </mxCell>
                <mxCell id="cat-pathogens" value="病因 (Pathogenic Factors)" style="rounded=1;whiteSpace=wrap;html=1;fillColor=#f8f9fa;strokeColor=#343a40;fontStyle=1;fontSize=16;verticalAlign=bottom;" parent="1" vertex="1">
                    <mxGeometry x="1250" y="150" width="300" height="250" as="geometry"/>
                </mxCell>
                <mxCell id="pathogens-content" value="&lt;b&gt;外感六淫 (Six Evils):&lt;/b&gt;&lt;br&gt;风 (Wood), 寒 (Water), 暑 (Fire), 湿 (Earth), 燥 (Metal), 火 (Fire)&lt;br&gt;&lt;br&gt;&lt;b&gt;内伤七情 (Seven Emotions):&lt;/b&gt;&lt;br&gt;怒伤肝 (Wood), 喜伤心 (Fire), 思伤脾 (Earth), 悲忧伤肺 (Metal), 惊恐伤肾 (Water)" style="text;html=1;strokeColor=none;fillColor=none;align=left;verticalAlign=top;whiteSpace=wrap;rounded=0;spacingLeft=10;" parent="cat-pathogens" vertex="1">
                    <mxGeometry y="40" width="300" height="210" as="geometry"/>
                </mxCell>
                <mxCell id="cat-medicine" value="药性 (Medicinal Properties)" style="rounded=1;whiteSpace=wrap;html=1;fillColor=#f8f9fa;strokeColor=#343a40;fontStyle=1;fontSize=16;verticalAlign=bottom;" parent="1" vertex="1">
                    <mxGeometry x="1250" y="650" width="300" height="250" as="geometry"/>
                </mxCell>
                <mxCell id="medicine-content" value="&lt;b&gt;四气 (Four Natures - Yin/Yang):&lt;/b&gt;&lt;br&gt;寒、凉 (Yin) vs 热、温 (Yang)&lt;br&gt;&lt;br&gt;&lt;b&gt;五味 (Five Flavors - Five Elements):&lt;/b&gt;&lt;br&gt;酸入肝 (Wood), 苦入心 (Fire), 甘入脾 (Earth), 辛入肺 (Metal), 咸入肾 (Water)" style="text;html=1;strokeColor=none;fillColor=none;align=left;verticalAlign=top;whiteSpace=wrap;rounded=0;spacingLeft=10;" parent="cat-medicine" vertex="1">
                    <mxGeometry y="40" width="300" height="210" as="geometry"/>
                </mxCell>
                <mxCell id="cat-symptoms" value="症状 (Symptoms)" style="rounded=1;whiteSpace=wrap;html=1;fillColor=#f8f9fa;strokeColor=#343a40;fontStyle=1;fontSize=16;verticalAlign=bottom;" parent="1" vertex="1">
                    <mxGeometry x="50" y="650" width="300" height="250" as="geometry"/>
                </mxCell>
                <mxCell id="symptoms-content" value="&lt;b&gt;阴阳定性:&lt;/b&gt;&lt;br&gt;&lt;b&gt;阳症:&lt;/b&gt; 热、红、动、亢奋、急性&lt;br&gt;&lt;b&gt;阴症:&lt;/b&gt; 寒、白、静、虚弱、慢性&lt;br&gt;&lt;br&gt;&lt;b&gt;五行定位:&lt;/b&gt;&lt;br&gt;&lt;b&gt;木:&lt;/b&gt; 抽搐、眩晕、眼疾&lt;br&gt;&lt;b&gt;火:&lt;/b&gt; 心悸、失眠、口疮&lt;br&gt;&lt;b&gt;土:&lt;/b&gt; 腹胀、食欲不振、倦怠&lt;br&gt;&lt;b&gt;金:&lt;/b&gt; 咳嗽、气喘、皮毛问题&lt;br&gt;&lt;b&gt;水:&lt;/b&gt; 腰膝酸软、水肿、耳鸣" style="text;html=1;strokeColor=none;fillColor=none;align=left;verticalAlign=top;whiteSpace=wrap;rounded=0;spacingLeft=10;" parent="cat-symptoms" vertex="1">
                    <mxGeometry y="40" width="300" height="210" as="geometry"/>
                </mxCell>
                <mxCell id="example-box" value="应用举例：&lt;br&gt;“上火”发炎 = 身体出现“热”症 (阳症，属火)&lt;br&gt;↓&lt;br&gt;根据“水克火”的原理&lt;br&gt;↓&lt;br&gt;选用尝起来“寒、凉”药性 (属水、金) 的药物来治疗&lt;br&gt;↓&lt;br&gt;例如：金银花、连翘 (性寒，入肺经(金))&lt;br&gt;↓&lt;br&gt;通过“金生水”或直接用“水”来克制“火”，恢复平衡" style="shape=process;whiteSpace=wrap;html=1;backgroundOutline=1;fontSize=14;align=left;verticalAlign=top;spacingLeft=10;fillColor=#fafafa;strokeColor=#666666;" parent="1" vertex="1">
                    <mxGeometry x="700" y="900" width="400" height="200" as="geometry"/>
                </mxCell>
                <mxCell id="2" style="edgeStyle=none;endArrow=none;html=1;strokeColor=#999999;dashed=1;" parent="1" source="cat-organs" target="taiji" edge="1">
                    <mxGeometry relative="1" as="geometry"/>
                </mxCell>
                <mxCell id="3" style="edgeStyle=none;endArrow=none;html=1;strokeColor=#999999;dashed=1;" parent="1" source="cat-pathogens" target="taiji" edge="1">
                    <mxGeometry relative="1" as="geometry"/>
                </mxCell>
                <mxCell id="4" style="edgeStyle=none;endArrow=none;html=1;strokeColor=#999999;dashed=1;" parent="1" source="cat-symptoms" target="taiji" edge="1">
                    <mxGeometry relative="1" as="geometry"/>
                </mxCell>
                <mxCell id="5" style="edgeStyle=none;endArrow=none;html=1;strokeColor=#999999;dashed=1;" parent="1" source="cat-medicine" target="taiji" edge="1">
                    <mxGeometry relative="1" as="geometry"/>
                </mxCell>
            </root>
        </mxGraphModel>
    </diagram>
</mxfile>